PathFileType	4	(X/Y/Z)	c:\Git\powerlifing_model_clean\simulations\HC835B\Session1\HC835B_OGR_0008\marker_experimental.trc
DataRate	CameraRate	NumFrames	NumMarkers	Units	OrigDataRate	OrigDataStartFrame	OrigNumFrames
240.000000	240.000000	4	38	mm	240.000000	81	217
Frame#	Time	RPSI			LPSI			RASI			LASI			RTH1			RTH2			RTH3			RTH4			RSK1			RSK2			RSK3			RSK4			RCAL1			RCAL2			RCAL3			RST			RPT			RTN			RFMB			RSMB			RVMB			RFMH			RSMH			RVMH			RPM			LTH1			LTH2			LTH3			LTH4			LSK1			LSK2			LSK3			LSK4			LCAL1			LCAL2			LCAL3			LFMH			LVMH			
		X1	Y1	Z1	X2	Y2	Z2	X3	Y3	Z3	X4	Y4	Z4	X5	Y5	Z5	X6	Y6	Z6	X7	Y7	Z7	X8	Y8	Z8	X9	Y9	Z9	X10	Y10	Z10	X11	Y11	Z11	X12	Y12	Z12	X13	Y13	Z13	X14	Y14	Z14	X15	Y15	Z15	X16	Y16	Z16	X17	Y17	Z17	X18	Y18	Z18	X19	Y19	Z19	X20	Y20	Z20	X21	Y21	Z21	X22	Y22	Z22	X23	Y23	Z23	X24	Y24	Z24	X25	Y25	Z25	X26	Y26	Z26	X27	Y27	Z27	X28	Y28	Z28	X29	Y29	Z29	X30	Y30	Z30	X31	Y31	Z31	X32	Y32	Z32	X33	Y33	Z33	X34	Y34	Z34	X35	Y35	Z35	X36	Y36	Z36	X37	Y37	Z37	X38	Y38	Z38	

82	0.3375	466.3757934570314	1221.948974609375	-843.851257324219	358.2145080566407	1218.421264648438	-834.2545166015627	518.5550537109376	1119.868896484375	-1030.119018554688	285.1170654296876	1146.593627929688	-1023.0048828125	596.5344238281251	878.8950195312502	-851.6386718750002	586.6209106445314	845.6135253906252	-901.8672485351565	585.4409179687501	795.6131591796877	-841.8619384765627	564.0898437500001	764.8148803710939	-887.1556396484377	546.1728515625001	438.5833129882814	-554.4487915039064	546.6440429687501	394.1824035644532	-597.2160034179689	541.9058227539064	382.4591369628907	-537.7503662109376	530.7272338867189	340.6197204589844	-579.2695922851564	479.5562438964845	314.8271789550782	-430.2551879882814	436.8963012695314	296.1553649902344	-413.2313537597657	497.9441833496095	288.5844116210938	-393.838592529297	430.3137512207032	246.3390808105469	-463.6138305664064	524.2300415039064	239.2522583007813	-426.3819885253907	450.9837951660157	207.6716308593751	-505.8171386718751	447.8197021484376	170.4053497314453	-503.7286682128907	500.9387817382814	164.9318237304688	-516.0614624023439	525.4235229492189	186.616439819336	-424.8089599609376	433.2412109375001	108.0534133911133	-503.5145568847657	488.911102294922	96.81705474853518	-510.9253234863282	536.4831542968751	111.4527587890625	-450.8504333496095	476.4013061523439	45.63879776000977	-536.0651855468751	228.5182647705079	874.2065429687502	-1027.31689453125	232.7762451171876	885.3274536132815	-1087.110961914063	236.9678802490235	804.7250976562502	-1076.5068359375	256.7639160156251	817.0210571289065	-1133.887451171875	275.7969360351563	376.8299255371094	-1008.305603027344	270.5087890625001	349.8439331054688	-1055.202392578125	281.2431640625001	319.2385253906251	-1017.140625	288.4355468750001	296.5140380859376	-1067.446166992188	343.1718750000001	176.2575225830078	-941.8594360351565	315.2478942871094	137.2271881103516	-939.1025390625002	373.9176940917969	140.3920440673828	-945.704528808594	370.4266967773438	134.3668670654297	-1166.778686523438	269.7250366210938	101.8750762939453	-1124.559326171875	
83	0.3416666666666667	466.0172119140626	1223.881958007813	-858.110534667969	357.8583984375001	1220.138427734375	-848.5556640625002	518.5725097656251	1121.740234375	-1043.861083984375	285.1598815917969	1148.567138671875	-1037.146362304688	596.3900756835939	880.3109130859377	-864.8713378906252	587.0977783203126	846.9927978515627	-915.182556152344	585.2555541992189	796.9627075195315	-855.0872192382815	564.7476806640626	766.0326538085939	-900.6176757812502	547.2984619140626	443.3708496093751	-564.4475097656251	547.3297119140626	398.0567321777345	-606.2227172851564	542.9669799804689	387.6706542968751	-546.4461669921876	531.0242309570314	344.9284362792969	-586.9508056640626	479.816619873047	322.6136169433594	-437.2049560546876	437.3016967773439	303.8128662109376	-420.0239868164064	498.2130432128907	297.3192138671876	-400.1498413085939	431.3969726562501	252.8392944335938	-469.4940795898439	525.6299438476564	247.9058685302735	-431.6676635742189	452.6111450195314	213.3272552490235	-510.532196044922	449.9517517089845	176.0630798339844	-507.550994873047	503.2844848632814	171.1436767578125	-519.7199096679689	527.2899780273439	195.1818237304688	-428.938690185547	437.3582458496095	114.0162582397461	-507.168670654297	492.2858886718751	102.9949417114258	-513.2399291992189	539.6628417968751	119.6160736083985	-453.2538452148439	480.5289306640626	51.04321289062501	-537.1699218750001	229.8459777832032	873.0781250000002	-1037.9921875	233.6085815429688	883.648376464844	-1097.953979492188	238.2297821044922	803.2525024414065	-1086.619995117188	257.6081542968751	814.9807128906252	-1144.2080078125	275.4345092773438	371.3983459472657	-1028.849243164063	270.6219787597657	345.9957275390626	-1076.75439453125	281.1311340332032	314.3273010253907	-1039.659423828125	288.7754821777344	293.3309936523438	-1090.7421875	343.0983581542969	167.9731750488282	-969.684265136719	315.3262023925782	128.8448486328125	-968.6015625000002	373.8984680175782	132.2779998779297	-974.9148559570315	371.0333557128907	135.1497650146485	-1196.041259765625	270.1938171386719	100.8777770996094	-1155.421020507813	
84	0.3458333333333333	465.6714477539064	1225.531860351563	-872.2943115234377	357.5379943847657	1221.642578125	-862.8188476562502	518.6665039062501	1123.550903320313	-1057.613037109375	285.2424011230469	1150.119018554688	-1051.204345703125	596.1889648437501	881.3591308593752	-878.4594726562502	587.4187011718751	848.0435791015627	-928.806091308594	585.3765258789064	798.1201782226565	-868.7587890625002	565.1574707031251	767.0433349609376	-914.4489746093752	548.1581420898439	448.3024291992189	-574.3742065429689	547.8402709960939	401.9904174804689	-615.1467895507814	543.8115844726564	393.0616149902345	-555.1046142578126	531.9044799804689	349.5033264160157	-594.5781860351564	480.0361328125001	330.3604736328126	-444.0317687988282	437.6702575683595	311.2594604492188	-426.5747985839845	498.9233703613282	306.3348693847657	-406.4771423339845	432.8042602539064	259.2878723144532	-475.0930786132814	526.8222045898439	256.3107910156251	-436.9592895507814	454.4101867675782	219.2978668212891	-515.7410278320314	452.3225402832032	182.1157531738282	-511.7511596679689	505.8073730468751	177.7286682128907	-523.6597290039064	529.0961914062501	203.7898254394532	-433.2010498046876	440.5938720703126	119.894027709961	-510.1679687500001	495.7225952148439	109.4805908203125	-515.9672851562501	542.6281738281251	127.939567565918	-456.0946044921876	484.8016357421876	56.87977600097658	-538.8353881835939	230.9301910400391	871.527038574219	-1048.493408203125	234.3526916503907	881.591003417969	-1108.55810546875	239.1974487304688	801.2410278320315	-1096.475830078125	258.4398193359376	812.6396484375002	-1154.221923828125	275.0644531250001	366.2910461425782	-1049.1181640625	271.0032653808594	342.3468322753907	-1098.419677734375	281.0925903320313	309.5776672363282	-1062.101928710938	289.0402832031251	290.6831970214844	-1113.946533203125	342.9912109375001	160.3529205322266	-997.371520996094	315.6484375000001	120.7469787597657	-998.4531250000002	373.8613891601563	124.9490661621094	-1003.934387207031	371.8385925292969	136.3325653076172	-1224.798828125	270.8882751464844	100.25439453125	-1185.74072265625	
85	0.35	465.3574523925782	1226.964233398438	-886.4564208984377	357.2846984863282	1222.906494140625	-877.0415039062502	518.8699340820314	1125.280029296875	-1071.29150390625	285.2871398925782	1151.298217773438	-1065.124755859375	595.9717407226564	882.0923461914065	-892.3836059570315	587.4077148437501	848.829040527344	-942.8375244140627	585.2742309570314	798.9138793945315	-882.854675292969	565.2345581054689	767.7389526367189	-928.6202392578127	548.9085083007814	453.4972534179689	-584.2469482421876	548.5983276367189	406.351531982422	-623.8966674804689	544.6409912109376	398.6469726562501	-563.5948486328126	532.6724853515626	354.2465209960938	-602.1138916015626	480.2814025878907	338.1129455566407	-450.842498779297	438.1248168945314	318.7478942871094	-433.277313232422	499.2278137207032	314.7911682128907	-412.8358764648439	433.9983215332032	265.8837585449219	-480.8687133789064	527.9375610351564	264.7530517578126	-442.361785888672	456.191131591797	225.4530639648438	-520.8975830078126	454.6096801757814	188.4523315429688	-516.2969360351564	508.0914611816407	184.4577789306641	-527.7569580078126	530.9281005859376	212.3636169433594	-437.7571716308595	442.9450073242189	125.8005294799805	-512.5748901367189	499.1885681152345	116.3175582885742	-519.0737915039064	545.4574584960939	136.268783569336	-459.3899230957032	488.8606872558595	63.13538360595705	-541.1229248046876	231.7020263671876	869.6998291015627	-1058.775024414063	235.021469116211	879.174743652344	-1118.963256835938	239.8656311035157	798.9231567382815	-1106.12060546875	259.1153259277344	809.746032714844	-1163.92919921875	275.1984558105469	361.2058410644532	-1069.370483398438	269.6930236816407	340.3999328613282	-1118.563720703125	280.9368286132813	305.3499450683594	-1084.317993164063	289.3421630859376	288.4067077636719	-1136.876220703125	342.9615173339844	153.7863464355469	-1024.539428710938	315.6751098632813	113.924789428711	-1027.505004882813	373.8397216796876	118.4829177856446	-1032.863159179688	372.7868041992188	137.9845733642578	-1253.0166015625	271.8038330078126	99.90997314453128	-1215.64892578125	
